<?xml version="1.0" encoding="utf-8"?>
<svg xmlns="http://www.w3.org/2000/svg" width="240" height="200" viewBox="0 0 240 200">
  <defs>
    <path id="1k4wuxltba" d="M127.095 0c3.057 0 5.535 2.478 5.535 5.535 0 .474-.06.946-.18 1.405l-18.874 71.952c-.776 2.957-3.801 4.725-6.758 3.95l-.098-.027L4.033 53.853C1.647 53.18 0 51.003 0 48.526V5.536C0 2.477 2.478 0 5.535 0h121.56zM92.523 60.79c-.541-.54-1.417-.538-1.956.004l-4.522 4.544c-.537.54-.537 1.413 0 1.952l4.522 4.545.004.005c.542.539 1.418.537 1.957-.005l4.522-4.545c.537-.54.537-1.412 0-1.952l-4.522-4.544zM43.698 48.52c-.542-.538-1.418-.536-1.957.006L37.22 53.07c-.537.54-.537 1.412 0 1.952l4.521 4.544c.547.544 1.423.542 1.962 0l4.521-4.544c.538-.54.538-1.412 0-1.952l-4.52-4.544-.006-.005zm19.835 0c-.541-.538-1.417-.536-1.957.006l-4.52 4.544c-.538.54-.538 1.412 0 1.952l4.52 4.544c.547.544 1.423.542 1.962 0l4.522-4.544c.537-.54.537-1.412 0-1.952l-4.522-4.544-.005-.005zm18.31 0c-.542-.538-1.418-.536-1.957.006l-4.521 4.544c-.537.54-.537 1.412 0 1.952l4.521 4.544.005.005c.542.54 1.418.537 1.957-.005l4.521-4.544c.537-.54.537-1.412 0-1.952l-4.521-4.544zm19.835 0c-.542-.538-1.418-.536-1.957.006L95.2 53.07c-.537.54-.537 1.412 0 1.952l4.521 4.544c.547.544 1.423.542 1.962 0l4.522-4.544c.537-.54.537-1.412 0-1.952l-4.522-4.544-.005-.005zM13.182 34.72c-.541-.54-1.418-.537-1.957.005l-4.521 4.544c-.537.54-.537 1.412 0 1.952l4.521 4.545.005.005c.542.539 1.418.536 1.957-.005l4.522-4.545c.537-.54.537-1.412 0-1.952l-4.522-4.544-.005-.005zm19.836 0c-.542-.54-1.418-.537-1.957.005l-4.522 4.544c-.537.54-.537 1.412 0 1.952l4.522 4.545c.546.544 1.423.541 1.962 0l4.52-4.545c.538-.54.538-1.412 0-1.952l-4.52-4.544zm19.835 0c-.542-.54-1.418-.537-1.957.005l-4.521 4.544c-.538.54-.538 1.412 0 1.952l4.52 4.545c.548.544 1.424.541 1.963 0l4.521-4.545c.537-.54.537-1.412 0-1.952l-4.521-4.544zm19.835 0c-.542-.54-1.418-.537-1.957.005l-4.521 4.544c-.537.54-.537 1.412 0 1.952l4.521 4.545.005.005c.542.539 1.418.536 1.957-.005l4.522-4.545c.537-.54.537-1.412 0-1.952l-4.522-4.544-.005-.005zm19.835 0c-.541-.54-1.417-.537-1.956.005l-4.522 4.544c-.537.54-.537 1.412 0 1.952l4.522 4.545.004.005c.542.539 1.418.536 1.957-.005l4.522-4.545c.537-.54.537-1.412 0-1.952l-4.522-4.544-.005-.005zm19.836 0c-.542-.54-1.418-.537-1.957.005l-4.522 4.544c-.537.54-.537 1.412 0 1.952l4.522 4.545c.547.544 1.423.541 1.962 0l4.521-4.545c.537-.54.537-1.412 0-1.952l-4.521-4.544zM22.337 20.545c-.542-.54-1.418-.537-1.957.005l-4.521 4.544c-.537.54-.537 1.412 0 1.952l4.521 4.545.005.005c.542.539 1.418.536 1.957-.005l4.521-4.545c.537-.54.537-1.412 0-1.952l-4.521-4.544-.005-.005zm21.361 0c-.542-.54-1.418-.537-1.957.005l-4.521 4.544c-.537.54-.537 1.412 0 1.952l4.521 4.545.005.005c.542.539 1.418.536 1.957-.005l4.521-4.545c.538-.54.538-1.412 0-1.952l-4.52-4.544-.006-.005zm19.835 0c-.541-.54-1.417-.537-1.957.005l-4.52 4.544c-.538.54-.538 1.412 0 1.952l4.52 4.545.005.005c.542.539 1.418.536 1.957-.005l4.522-4.545c.537-.54.537-1.412 0-1.952l-4.522-4.544-.005-.005zm18.31 0c-.542-.54-1.418-.537-1.957.005l-4.521 4.544c-.537.54-.537 1.412 0 1.952l4.521 4.545c.547.544 1.423.541 1.962 0l4.521-4.545c.537-.54.537-1.412 0-1.952l-4.521-4.544zm19.835 0c-.542-.54-1.418-.537-1.957.005L95.2 25.094c-.537.54-.537 1.412 0 1.952l4.521 4.545.005.005c.542.539 1.418.536 1.957-.005l4.522-4.545c.537-.54.537-1.412 0-1.952l-4.522-4.544-.005-.005zM13.182 8.277c-.541-.54-1.418-.537-1.957.005l-4.521 4.544c-.537.54-.537 1.412 0 1.952l4.521 4.544c.547.544 1.423.542 1.962 0l4.522-4.544c.537-.54.537-1.412 0-1.952l-4.522-4.544-.005-.005zm19.836 0c-.542-.54-1.418-.537-1.957.005l-4.522 4.544c-.537.54-.537 1.412 0 1.952l4.522 4.544.005.005c.541.54 1.418.537 1.957-.005l4.52-4.544c.538-.54.538-1.412 0-1.952l-4.52-4.544zm19.835 0c-.542-.54-1.418-.537-1.957.005l-4.521 4.544c-.538.54-.538 1.412 0 1.952l4.52 4.544.006.005c.542.54 1.418.537 1.957-.005l4.521-4.544c.537-.54.537-1.412 0-1.952l-4.521-4.544zm19.835 0c-.542-.54-1.418-.537-1.957.005l-4.521 4.544c-.537.54-.537 1.412 0 1.952l4.521 4.544c.547.544 1.423.542 1.962 0l4.522-4.544c.537-.54.537-1.412 0-1.952l-4.522-4.544-.005-.005zm19.835 0c-.541-.54-1.417-.537-1.956.005l-4.522 4.544c-.537.54-.537 1.412 0 1.952l4.522 4.544c.546.544 1.422.542 1.961 0l4.522-4.544c.537-.54.537-1.412 0-1.952l-4.522-4.544-.005-.005zm19.836 0c-.542-.54-1.418-.537-1.957.005l-4.522 4.544c-.537.54-.537 1.412 0 1.952l4.522 4.544.005.005c.542.54 1.418.537 1.957-.005l4.521-4.544c.537-.54.537-1.412 0-1.952l-4.521-4.544z"/>
    <path id="qjajyq81oc" d="M0.275 0.682L13.665 0.682 13.665 17.516 0.275 17.516z"/>
    <path id="9c7f0hty0e" d="M0.275 0.682L13.665 0.682 13.665 17.516 0.275 17.516z"/>
  </defs>
  <g fill="none" fill-rule="evenodd">
    <path fill="#E6E7E8" d="M0 0H2179V1846H0z" opacity=".697" transform="translate(-218 -992)"/>
    <g>
      <path fill="#FFF" d="M0 0H375V667H0z" transform="translate(-68 -176)"/>
      <g>
        <path fill="#FFF" d="M0 0H240V200H0z" transform="translate(-68 -176) translate(68 178)"/>
        <g>
          <g transform="translate(-68 -176) translate(68 178) translate(53 16) translate(0 5)">
            <g transform="translate(.727 21.605)">
              <mask id="crvj6obzzb" fill="#fff">
                <use href="#1k4wuxltba"/>
              </mask>
              <use href="#1k4wuxltba" style="fill: rgb(246, 140, 31);"/>
              <path d="M-6.103 -6.134H154.105V4.600999999999999H-6.103z" mask="url(#crvj6obzzb)" style="fill: rgb(6, 12, 59);"/>
            </g>
            <path stroke="#C5C5C5" stroke-linecap="round" stroke-width="2.768" d="M151.453 5.79c-10.176 0-16.027 4.361-17.554 13.082-8.65 36.425-17.808 73.362-27.476 110.812-27.985-.513-57.242-.77-87.77-.77-7.124 0-11.704 3.592-13.739 10.774"/>
            <ellipse cx="155.64" cy="4.736" rx="4.187" ry="4.217" style="fill: rgb(246, 140, 31);"/>
            <g>
              <path d="M20.934 14.078c0 5.823-4.686 10.543-10.467 10.543C4.687 24.621 0 19.901 0 14.078 0 8.255 4.686 3.535 10.467 3.535c5.781 0 10.467 4.72 10.467 10.543" transform="translate(18.521 130.2)" style="fill: rgb(6, 12, 59);"/>
              <path d="M17.856 14.078c0 4.11-3.308 7.442-7.39 7.442-4.08 0-7.388-3.332-7.388-7.442s3.309-7.442 7.389-7.442c4.081 0 7.389 3.332 7.389 7.442" transform="translate(18.521 130.2)" style="fill: rgb(246, 140, 31);"/>
              <g transform="translate(18.521 130.2) translate(0 .372)">
                <mask id="57yhhuu9fd" fill="#fff">
                  <path d="M0.275 0.682L13.665 0.682 13.665 17.516 0.275 17.516z"/>
                </mask>
                <path d="M7.389 15.567C4.926 3.784-1.231 3.784.615.682h9.236c2.463 0 4.31 12.404 3.694 14.885-.615 2.48-5.59 2.713-6.156 0" mask="url(#57yhhuu9fd)" style="fill: rgb(6, 12, 59);"/>
              </g>
            </g>
            <g>
              <path d="M20.934 14.078c0 5.823-4.686 10.543-10.467 10.543C4.687 24.621 0 19.901 0 14.078 0 8.255 4.686 3.535 10.467 3.535c5.781 0 10.467 4.72 10.467 10.543" transform="translate(85.51 130.2)" style="fill: rgb(6, 12, 59);"/>
              <path d="M17.856 14.078c0 4.11-3.308 7.442-7.39 7.442-4.08 0-7.388-3.332-7.388-7.442s3.309-7.442 7.389-7.442c4.081 0 7.389 3.332 7.389 7.442" transform="translate(85.51 130.2)" style="fill: rgb(246, 140, 31);"/>
              <g transform="translate(85.51 130.2) translate(0 .372)">
                <mask id="c48q3txukf" fill="#fff">
                  <use href="#9c7f0hty0e"/>
                </mask>
                <path d="M7.389 15.567C4.926 3.784-1.231 3.784.615.682h9.236c2.463 0 4.31 12.404 3.694 14.885-.615 2.48-5.59 2.713-6.156 0" mask="url(#c48q3txukf)" style="fill: rgb(6, 12, 59);"/>
              </g>
            </g>
            <g transform="translate(38.054 42.032)"/>
          </g>
          <g fill="#006EDE" transform="translate(-68 -176) translate(68 178) translate(53 16) translate(38.649)">
            <rect width="13.838" height="2.992" x="-.882" y="9.637" fill-opacity=".5" rx="1.496" transform="rotate(45 6.037 11.133)" style="fill: rgb(246, 140, 31);"/>
            <rect width="13.838" height="2.992" x="45.09" y="9.514" fill-opacity=".5" rx="1.496" transform="scale(-1 1) rotate(45 0 -114.55)" style="fill: rgb(246, 140, 31);"/>
            <rect width="14.96" height="2.992" x="21.458" y="5.984" opacity=".5" rx="1.496" transform="rotate(90 28.938 7.48)" style="fill: rgb(246, 140, 31);"/>
          </g>
        </g>
      </g>
    </g>
  </g>
</svg>