<?xml version="1.0" encoding="UTF-8"?>
<svg id="Layer_1" data-name="Layer 1" xmlns="http://www.w3.org/2000/svg" viewBox="0 0 4000 2416">
  <defs>
    <style>
      .cls-1 {
        fill: #fff;
      }

      .cls-2 {
        fill: #f68c1f;
      }
    </style>
  </defs>
  <g>
    <path class="cls-1" d="M1674.83,1161.45c0,44.31-34.51,80.52-81.37,85.63-1.28.43-2.98.43-72.85.43v105.23c0,11.93-9.8,21.3-21.3,21.3s-21.3-9.37-21.3-21.3v-254.77c0-11.93,9.37-21.3,21.3-21.3h92.45c46.01,1.7,83.08,39.2,83.08,84.78ZM1588.34,1204.9c24.28,0,43.88-19.17,44.31-43.46-.43-23.86-20.02-42.18-44.31-42.18h-67.74v85.63h67.74Z"/>
    <path class="cls-1" d="M1886.57,1269.23v83.5c0,12.35-8.95,21.3-21.3,21.3-8.52,0-20.45-8.95-20.45-21.3-18.32,15.34-38.77,21.3-63.05,21.3-60.07,0-107.79-44.73-107.79-104.8s47.72-107.79,107.79-107.79,104.8,47.72,104.8,107.79ZM1844.82,1269.23c0-35.79-27.27-66.04-63.05-66.04s-66.04,30.25-66.04,66.04,30.25,63.05,66.04,63.05,63.05-27.27,63.05-63.05Z"/>
    <path class="cls-1" d="M2125.99,1267.53v85.63c0,11.93-9.37,21.3-21.3,21.3s-20.88-9.37-20.88-21.3v-85.63c0-35.79-28.97-64.76-64.76-64.76s-64.76,28.97-64.76,64.76v85.63c0,11.93-9.37,21.3-21.3,21.3s-20.88-9.37-20.88-21.3v-85.63c0-59.22,48.14-106.94,106.94-106.94s106.94,47.72,106.94,106.94Z"/>
    <path class="cls-1" d="M2364.14,1269.23v83.5c0,12.35-8.95,21.3-21.3,21.3-8.52,0-20.45-8.95-20.45-21.3-18.32,15.34-38.77,21.3-63.05,21.3-60.07,0-107.79-44.73-107.79-104.8s47.72-107.79,107.79-107.79,104.8,47.72,104.8,107.79ZM2322.39,1269.23c0-35.79-27.27-66.04-63.05-66.04s-66.04,30.25-66.04,66.04,30.25,63.05,66.04,63.05,63.05-27.27,63.05-63.05Z"/>
    <path class="cls-1" d="M2602.72,1266.68c0,58.79-47.72,106.94-106.94,106.94s-106.94-48.14-106.94-106.94v-191.29c0-11.5,9.37-20.88,21.3-20.88s20.88,9.37,20.88,20.88v106.08c17.89-13.63,40.47-21.73,64.76-21.73,59.22,0,106.94,47.72,106.94,106.94ZM2560.54,1266.68c0-35.79-28.97-64.76-64.76-64.76s-64.76,28.97-64.76,64.33v.43c0,35.79,28.97,64.76,64.76,64.76s64.76-29.4,64.76-64.76Z"/>
    <path class="cls-1" d="M2840.44,1269.23v83.5c0,12.35-8.95,21.3-21.3,21.3-8.52,0-20.45-8.95-20.45-21.3-18.32,15.34-38.77,21.3-63.05,21.3-60.07,0-107.79-44.73-107.79-104.8s47.72-107.79,107.79-107.79,104.8,47.72,104.8,107.79ZM2798.69,1269.23c0-35.79-27.27-66.04-63.05-66.04s-66.04,30.25-66.04,66.04,30.25,63.05,66.04,63.05,63.05-27.27,63.05-63.05Z"/>
    <path class="cls-1" d="M3037.69,1183.17v210.04c0,48.14-39.62,87.76-88.19,87.76-33.66,0-63.91-19.17-78.82-49.42-5.11-10.23-.85-23.01,9.8-28.12,10.22-5.11,23.01-.43,27.69,9.8,8.1,15.76,23.86,25.56,41.33,25.56,25.56,0,46.01-20.45,46.01-45.59v-30.68c-12.78,7.67-27.69,11.93-43.88,11.93-46.87,0-85.21-37.92-85.63-84.78v-106.51c0-11.5,9.37-20.88,20.88-20.88s20.88,9.37,20.88,20.88v105.66c0,24.28,20.02,43.88,43.88,43.88s43.88-19.6,43.88-43.88v-105.66c0-11.5,9.37-20.88,20.88-20.88s21.3,9.37,21.3,20.88Z"/>
  </g>
  <g>
    <path class="cls-2" d="M1332.93,1117.75h-64.34l-43.72-101.77h-164.28l-98.28,138.39,48.72,113.38h70.86l86.01,200.14h91.19l120.24-208.3,8.34-14.48-54.73-127.34ZM1233.11,1117.75h-34.43l-29.73-69.17h34.45l29.71,69.17ZM1163.2,1117.75h-38.05l-29.73-69.17h38.05l29.73,69.17ZM999.49,1158.31l22.06-31.06,35.13,81.78h215.66l42.03,97.83-19.75,34.21-45.5-105.93h-216.62l-33.02-76.83ZM1189.6,1267.74h38.05l46.63,108.57-21.81,37.77-62.87-146.34ZM1117.38,1267.74h36.74l71.98,167.54h-36.72l-72-167.54ZM1334.72,1271.63l-40.9-95.2h-215.67l-34.5-80.3,22.88-32.21,37.15,86.43h207.78l39.81,92.62-16.55,28.66Z"/>
    <path class="cls-2" d="M1144.19,967.63c13.68,0,26.12,6.98,33.28,18.67l27.81-17.02c-13.13-21.45-35.96-34.26-61.08-34.26s-47.93,12.81-61.05,34.26l27.81,17.02c7.15-11.69,19.58-18.67,33.25-18.67Z"/>
  </g>
</svg>