<?xml version="1.0" encoding="UTF-8"?>
<svg id="Layer_1" data-name="Layer 1" xmlns="http://www.w3.org/2000/svg" viewBox="0 0 2416 2416">
  <defs>
    <style>
      .cls-1 {
        fill: #f68c1f;
      }
    </style>
  </defs>
  <path class="cls-1" d="M1560.11,1021.4h-143.43l-97.46-226.89h-366.25l-219.11,308.51,108.62,252.76h157.98l191.74,446.18h203.3l268.05-464.39,18.59-32.28-122.02-283.9ZM1337.58,1021.4h-76.76l-66.28-154.21h76.81l66.23,154.21ZM1181.72,1021.4h-84.83l-66.29-154.21h84.83l66.28,154.21ZM816.75,1111.83l49.17-69.24,78.33,182.31h480.79l93.7,218.11-44.03,76.26-101.43-236.16h-482.92l-73.61-171.28ZM1240.57,1355.79h84.82l103.96,242.04-48.62,84.2-140.16-326.24ZM1079.56,1355.79h81.91l160.46,373.5h-81.86l-160.51-373.5ZM1564.1,1364.46l-91.18-212.23h-480.8l-76.91-179.02,51-71.8,82.82,192.68h463.22l88.74,206.48-36.89,63.9Z"/>
  <path class="cls-1" d="M1139.34,686.71c30.51,0,58.24,15.56,74.19,41.63l61.99-37.94c-29.26-47.82-80.17-76.37-136.18-76.37s-106.85,28.55-136.11,76.37l61.99,37.94c15.95-26.07,43.66-41.63,74.12-41.63Z"/>
</svg>