<svg xmlns="http://www.w3.org/2000/svg" version="1.1" xmlns:xlink="http://www.w3.org/1999/xlink" width="203.74" height="203.74"><svg id="SvgjsSvg1001" data-name="Layer 1" xmlns="http://www.w3.org/2000/svg" viewBox="0 0 203.74 203.74">
  <defs>
    <style>.cls-1{fill:#1471b9;}.cls-2{fill:#f68c1f;}</style>
  </defs>
  <path class="cls-1" d="M139.27,158.19l8-50.58c.73-7.46-.43-14.08-3.48-19.81a31.8,31.8,0,0,0-13.76-13.41,47.89,47.89,0,0,0-21.4-5.11,62.22,62.22,0,0,0-24,4A41.79,41.79,0,0,0,66.86,85.62a31.07,31.07,0,0,0-7,18.82l32.77-.09q2.51-12,13.21-11.83c5.77.21,8.78,3.31,9,9.35l-.41,5.26-1.19,6.05L102.32,113q-24.43,0-38.53,9.38T49.17,149.25a28,28,0,0,0,8.66,22.15q9.22,9.14,23.23,9.33,15.3.41,26.33-11.72a29.36,29.36,0,0,0,1.38,9.74h31.79l.11-1.88a27.08,27.08,0,0,1-1.9-12.53Zm-31.58-9.94c-5,6.16-10.89,9.1-17.6,8.84a7.88,7.88,0,0,1-6.2-2.82,8.8,8.8,0,0,1-1.53-6.71A17.49,17.49,0,0,1,89,135.48a22.24,22.24,0,0,1,13.5-4.61L111,131Z" style="fill: rgb(246, 140, 31);"></path>
  <path class="cls-2" d="M126.47,66.93c.13-3.28,3.16-5.43,4.94-7.9.51-.66,3.08-4,3.54-4.63a15.17,15.17,0,0,0,1.44-2.88l.72,2.31-2.46-.94c-1.21-.44-.48-.34-1.56-.13a4.35,4.35,0,0,1-2.47-.12,4.42,4.42,0,0,1-2-1.64c-2.4-4.34-4.47-7.77-6.64-12.42a26.78,26.78,0,0,0-2.12-4.41c-1.59-2.5-4.34-3.06-7.08-3.19a2.82,2.82,0,0,0-1.12,0,.86.86,0,0,0,.26-.13c.12-.15-1.8,3.57-1.81,3.62L107,32.77,96.74,27.18c.11-.39.89-3.1.91-3.43a2.45,2.45,0,0,0,.94,1.83,2.13,2.13,0,0,0,.88.44c-4.26.3-9,1.14-13.53,1.29-2.28-.16-3.2,2.39-4.32,4-2.3,3.85-6.55,8.84-7.74,12.94-.23,2,1.33,3.94,2.34,5.68.19.36.85,1.26,1,1.59.55.71,1.24,1.55,1.84,2.34.92.89,1.89.92,3.31.72,2.62-.38,5.62-.81,8.26-1.1,4.74-.33,7.89,4,7.57,8.29a23,23,0,0,0,1.51,5.19A19.51,19.51,0,0,1,97.1,62a17.85,17.85,0,0,0-.69-2.56c-.85-2-3.35-3.59-5.35-3l-5.22,1.43c-1.91.42-3.92,1.29-6.08,1.06a7.43,7.43,0,0,1-5-2.75c-.36-.39-1.07-1.08-1.42-1.5-1.74-2.27-3.51-4.28-4.65-7C66.38,42.08,70.63,36.85,73,32.51l2.78-4.69c1.2-1.83,2.13-3.9,4-5.35,2-1.69,4.62-2.11,7.09-2.17,1.71-.14,3.46-.37,5.27-.61,2.83-.29,5.63-.93,8.62-.55,3.59.68,4.46,4.28,3.36,7.26l-1.65-4,7.78,4.41-4.77,1.63a7.47,7.47,0,0,1,1.26-2c2.57-3,6.73-2.06,9.71-1.47,5.87,1.06,9.46,6.39,10.65,11.55,1.24,3.72,3.91,8.62,5,12.3-.11,0-.05.06.21,0a5,5,0,0,1,2.68.15l.34.17.62.33c.95.54,3.25,1.75,4.19,2.28-.88,1.09-1.39,2.13-2.27,3.4a13.73,13.73,0,0,1-1.76,1.88,63.8,63.8,0,0,1-7.11,6.23,7.45,7.45,0,0,0-2.61,3.64Z"></path>
</svg><style>@media (prefers-color-scheme: light) { :root { filter: none; } }
@media (prefers-color-scheme: dark) { :root { filter: none; } }
</style></svg>